<?xml version="1.0" standalone="no"?>
<!DOCTYPE svg PUBLIC "-//W3C//DTD SVG 20010904//EN" "http://www.w3.org/TR/2001/REC-SVG-20010904/DTD/svg10.dtd">
<svg version="1.0" xmlns="http://www.w3.org/2000/svg" width="192.000000pt" height="192.000000pt"
  viewBox="0 0 192.000000 192.000000" preserveAspectRatio="xMidYMid meet">
  <g transform="translate(0.000000,192.000000) scale(0.100000,-0.100000)" fill="red" stroke="none">
    <path
      d="M853 1830 c-131 -18 -282 -74 -380 -141 -70 -48 -178 -155 -229 -226
-79 -109 -147 -288 -156 -408 l-3 -40 161 -3 c91 -1 173 2 188 8 24 9 26 14
26 68 0 62 11 82 45 82 42 0 45 -15 45 -210 0 -195 -3 -210 -45 -210 -34 0
-45 20 -45 82 0 46 -4 59 -19 68 -19 10 -343 15 -353 5 -10 -10 15 -144 43
-230 98 -297 364 -526 674 -580 291 -51 572 39 780 250 257 260 324 648 171
980 -63 136 -184 279 -309 364 -158 107 -408 167 -594 141z m-59 -296 c14 -14
16 -80 16 -574 0 -494 -2 -560 -16 -574 -19 -20 -163 -23 -182 -4 -17 17 -17
1139 0 1156 19 19 163 16 182 -4z m258 -1 c17 -15 18 -46 18 -571 0 -503 -2
-557 -17 -574 -13 -14 -31 -18 -91 -18 -123 0 -112 -58 -112 588 0 503 2 557
17 574 22 25 157 26 185 1z m256 5 c17 -17 17 -1139 0 -1156 -19 -19 -163 -16
-182 4 -14 14 -16 80 -16 574 0 494 2 560 16 574 19 20 163 23 182 4z m290
-484 c20 -13 22 -24 22 -94 0 -102 -9 -110 -132 -110 -112 0 -118 5 -118 110
0 105 6 110 118 110 63 0 94 -4 110 -16z" />
  </g>
</svg>
